<svg width="511" height="351" viewBox="0 0 511 351" fill="none" xmlns="http://www.w3.org/2000/svg">
<path d="M434.407 178.728C430.544 207.266 416.63 233.471 395.186 252.596C373.741 271.722 346.185 282.501 317.508 282.983C288.83 283.465 260.93 273.617 238.86 255.223C216.791 236.829 202.011 211.106 197.2 182.713" stroke="black" stroke-width="9"/>
<path d="M125 160L122.175 156.497C120.93 157.501 120.311 159.091 120.551 160.673C120.79 162.255 121.851 163.591 123.337 164.182L125 160ZM316 6L318.828 2.49961L316.003 0.217209L313.175 2.49685L316 6ZM506 159.5L507.835 163.609C509.265 162.97 510.26 161.635 510.462 160.082C510.665 158.53 510.046 156.984 508.828 156L506 159.5ZM127.825 163.503L318.825 9.50315L313.175 2.49685L122.175 156.497L127.825 163.503ZM313.172 9.50039L503.172 163L508.828 156L318.828 2.49961L313.172 9.50039ZM506 159.5C504.165 155.391 504.166 155.391 504.166 155.391C504.166 155.391 504.166 155.391 504.166 155.391C504.165 155.391 504.163 155.392 504.16 155.393C504.154 155.396 504.144 155.401 504.128 155.407C504.098 155.421 504.05 155.442 503.983 155.471C503.85 155.529 503.646 155.617 503.37 155.735C502.818 155.969 501.983 156.318 500.872 156.765C498.651 157.659 495.33 158.946 490.976 160.495C482.268 163.592 469.435 167.738 453.022 171.887C420.192 180.188 373.066 188.5 316 188.5V197.5C373.934 197.5 421.808 189.062 455.228 180.613C471.94 176.387 485.044 172.158 493.993 168.974C498.467 167.382 501.904 166.052 504.233 165.114C505.398 164.645 506.286 164.274 506.89 164.018C507.191 163.89 507.421 163.79 507.579 163.721C507.658 163.687 507.719 163.66 507.762 163.641C507.783 163.632 507.8 163.624 507.812 163.619C507.818 163.616 507.823 163.614 507.827 163.612C507.829 163.611 507.831 163.611 507.832 163.61C507.834 163.609 507.835 163.609 506 159.5ZM316 188.5C262.444 188.5 215.057 180.316 181.054 172.125C164.058 168.031 150.424 163.94 141.054 160.879C136.369 159.348 132.752 158.075 130.316 157.189C129.097 156.746 128.174 156.399 127.561 156.166C127.254 156.049 127.025 155.96 126.874 155.901C126.799 155.872 126.744 155.85 126.708 155.836C126.691 155.83 126.678 155.825 126.67 155.821C126.667 155.82 126.664 155.819 126.663 155.818C126.662 155.818 126.662 155.818 126.662 155.818C126.662 155.818 126.663 155.818 125 160C123.337 164.182 123.339 164.182 123.34 164.183C123.341 164.183 123.343 164.184 123.345 164.185C123.349 164.186 123.354 164.188 123.36 164.191C123.372 164.195 123.39 164.202 123.413 164.211C123.458 164.229 123.523 164.255 123.608 164.288C123.779 164.354 124.029 164.451 124.356 164.576C125.011 164.825 125.977 165.188 127.239 165.647C129.763 166.565 133.474 167.871 138.259 169.434C147.826 172.56 161.692 176.719 178.946 180.875C213.443 189.184 261.556 197.5 316 197.5V188.5Z" fill="black"/>
<path d="M285.5 53L269 70" stroke="black" stroke-width="9" stroke-linecap="round"/>
<path d="M252.5 82.5L183.5 145.5" stroke="black" stroke-width="9" stroke-linecap="round"/>
<path d="M323 52.5L342 107.5" stroke="black" stroke-width="9" stroke-linecap="round"/>
<path d="M255.5 100.5L233 128" stroke="black" stroke-width="9" stroke-linecap="round"/>
<path d="M243.5 155L228 183" stroke="black" stroke-width="9" stroke-linecap="round"/>
<path d="M296 152.5L291 170.5" stroke="black" stroke-width="9" stroke-linecap="round"/>
<path d="M353.5 92L367.5 129.5" stroke="black" stroke-width="9" stroke-linecap="round"/>
<path d="M349 130L361 162.5" stroke="black" stroke-width="9" stroke-linecap="round"/>
<path d="M425 120.5L459 152" stroke="black" stroke-width="9" stroke-linecap="round"/>
<path d="M433 150.5L454 174.5" stroke="black" stroke-width="9" stroke-linecap="round"/>
<path d="M248.5 219C248.5 219 258.5 211.115 270.5 212.5C283.5 214 291 224.5 291 224.5M339.5 224.5C339.5 224.5 347 214 359.5 212.5C372 211 381.5 219 381.5 219M5 246.5H274" stroke="black" stroke-width="9" stroke-linecap="round"/>
<path d="M21.5 265H299.5" stroke="black" stroke-width="9" stroke-linecap="round"/>
<path d="M226.5 266V324" stroke="black" stroke-width="9" stroke-linecap="round"/>
<path d="M243 266.5V324.5" stroke="black" stroke-width="9" stroke-linecap="round"/>
<path d="M266 272.5V307.5" stroke="black" stroke-width="9" stroke-linecap="round"/>
<path d="M281.5 265V346" stroke="black" stroke-width="9" stroke-linecap="round"/>
<path d="M299 265V317" stroke="black" stroke-width="9" stroke-linecap="round"/>
<path d="M274 246.5C274 246.5 280.19 253.271 286 257C292.912 261.436 304 263.5 304 263.5" stroke="black" stroke-width="9" stroke-linecap="round"/>
<circle cx="130" cy="258.5" r="22" stroke="black" stroke-width="9"/>
</svg>
